<svg version="1.1" id="Layer_1" xmlns="http://www.w3.org/2000/svg" xmlns:xlink="http://www.w3.org/1999/xlink" x="0px" y="0px"
	 width="100%" viewBox="0 0 1024 1024" enable-background="new 0 0 1024 1024" xml:space="preserve">
<path fill="#FBFBFB" opacity="1.000000" stroke="none" 
	d="
M678.000000,1025.000000 
	C452.000000,1025.000000 226.500000,1025.000000 1.000000,1025.000000 
	C1.000000,683.666687 1.000000,342.333344 1.000000,1.000000 
	C342.333344,1.000000 683.666687,1.000000 1025.000000,1.000000 
	C1025.000000,342.333344 1025.000000,683.666687 1025.000000,1025.000000 
	C909.500000,1025.000000 794.000000,1025.000000 678.000000,1025.000000 
M165.544281,308.570190 
	C165.544281,308.570190 165.455597,308.644348 165.050674,308.912720 
	C164.838486,309.177673 164.737579,309.479767 164.924072,309.930939 
	C164.924072,309.930939 164.782501,309.777649 164.232651,310.074707 
	C163.650085,311.160675 163.067520,312.246643 162.352859,313.497406 
	C162.352859,313.497406 162.289932,313.699005 161.914871,314.267090 
	C156.308456,326.772827 158.303757,339.991943 158.122742,353.942200 
	C158.178055,359.287506 158.233383,364.632812 158.094131,370.892670 
	C158.156174,375.268982 158.218231,379.645294 158.124710,384.803833 
	C158.176773,385.862061 158.228851,386.920319 158.089096,388.890900 
	C158.155426,392.934631 158.221756,396.978394 158.132370,401.906799 
	C158.184280,404.597198 158.236191,407.287598 158.094711,410.842560 
	C158.158585,412.902374 158.222458,414.962219 158.133362,417.668182 
	C158.184372,418.104919 158.235397,418.541626 158.091812,419.900330 
	C158.155823,439.940826 158.219818,459.981323 158.127502,480.803894 
	C158.178604,481.862122 158.229706,482.920319 158.087723,484.900787 
	C158.080765,507.164856 158.045197,529.428955 158.076431,551.692993 
	C158.099060,567.802917 158.210342,583.912781 158.126892,600.934387 
	C158.178650,604.949463 158.230408,608.964478 158.090500,613.774414 
	C158.155060,614.856628 158.219620,615.938904 158.131134,617.667297 
	C158.182632,618.103943 158.234131,618.540527 158.092300,619.841980 
	C158.157227,621.902344 158.222153,623.962646 158.131287,626.838928 
	C158.183990,628.218323 158.236694,629.597656 158.093475,631.899109 
	C158.156586,645.606445 158.219696,659.313721 158.130875,673.668091 
	C158.183472,674.104980 158.236069,674.541931 158.098557,675.889465 
	C158.413330,680.592773 158.728104,685.296143 158.964859,690.671326 
	C159.071396,691.106445 159.177917,691.541504 159.235046,692.657043 
	C159.818283,694.107422 160.401520,695.557800 161.016006,697.727905 
	C165.498856,707.679199 172.993332,714.778137 182.275467,720.188599 
	C286.305634,780.826477 390.321655,841.488708 494.414795,902.018188 
	C498.494354,904.390442 503.183533,906.078552 507.806488,907.081665 
	C520.125366,909.754761 530.370300,904.318787 540.627502,898.301514 
	C634.731018,843.096741 728.935547,788.064148 823.075562,732.921570 
	C832.823608,727.211731 842.728699,721.645874 851.865112,715.049438 
	C861.854004,707.837524 867.951355,697.880432 868.082581,684.063171 
	C868.092285,567.377380 868.103271,450.691620 868.101562,334.005829 
	C868.101562,332.014404 867.948792,330.022949 868.011169,327.205383 
	C867.938965,326.208923 867.955933,325.196503 867.781250,324.218353 
	C865.059998,308.987091 855.099121,299.322449 842.467346,291.958496 
	C739.926331,232.179749 637.320496,172.512115 534.802307,112.694275 
	C520.475098,104.334549 506.550995,104.392632 492.345154,112.670578 
	C389.510529,172.593781 286.626129,232.431671 183.884186,292.513245 
	C177.987442,295.961517 173.200516,301.307648 167.413437,305.942566 
	C167.121658,306.358063 166.829865,306.773529 166.195770,307.407318 
	C166.195770,307.407318 166.111313,307.804382 165.834595,307.930847 
	C165.662201,308.071716 165.587021,308.252899 165.544281,308.570190 
z"/>
<path fill="#03213D" opacity="1.000000" stroke="none" 
	d="
M159.284454,691.976624 
	C159.177917,691.541504 159.071396,691.106445 159.275269,690.024658 
	C159.713547,686.929565 160.109131,684.457275 159.893387,682.039490 
	C159.680771,679.657166 158.848862,677.330139 158.288666,674.978821 
	C158.236069,674.541931 158.183472,674.104980 158.575531,673.217529 
	C159.323700,672.208984 159.889404,671.652222 159.892197,671.092712 
	C159.954651,658.605042 159.989258,646.116882 159.894943,633.629761 
	C159.888245,632.741577 158.848694,631.861084 158.289398,630.977051 
	C158.236694,629.597656 158.183990,628.218323 158.554413,626.322998 
	C158.746918,623.530457 158.516266,621.253845 158.285614,618.977173 
	C158.234131,618.540527 158.182632,618.103943 158.520798,617.263916 
	C158.701019,615.566895 158.491592,614.273254 158.282166,612.979553 
	C158.230408,608.964478 158.178650,604.949463 158.573105,600.350952 
	C159.336243,598.713745 159.928818,597.660400 159.930237,596.606201 
	C159.978882,560.274170 159.988037,523.941956 159.901306,487.610107 
	C159.898422,486.398315 158.844696,485.188995 158.280823,483.978546 
	C158.229706,482.920319 158.178604,481.862122 158.574188,480.285553 
	C159.337189,478.709412 159.925903,477.652435 159.929276,476.593658 
	C159.986496,458.605682 160.003815,440.617279 159.899323,422.629730 
	C159.892227,421.409515 158.848190,420.195343 158.286407,418.978363 
	C158.235397,418.541626 158.184372,418.104919 158.554993,417.237518 
	C158.747131,414.530579 158.517624,412.254272 158.288116,409.977997 
	C158.236191,407.287598 158.184280,404.597198 158.576050,401.338531 
	C160.096588,396.429932 161.423050,392.075195 158.280930,387.978546 
	C158.228851,386.920319 158.176773,385.862061 158.569641,384.287048 
	C160.199219,379.097778 161.436920,374.422546 158.288696,369.978119 
	C158.233383,364.632812 158.178055,359.287506 158.569366,353.354980 
	C159.333603,351.877441 159.881927,351.000305 159.933838,350.094757 
	C160.603897,338.406067 158.103546,326.465851 162.753418,315.084045 
	C162.892960,314.742493 162.457382,314.165985 162.289932,313.699005 
	C162.289932,313.699005 162.352859,313.497406 162.758087,313.469177 
	C163.703049,312.219849 164.242783,310.998749 164.782501,309.777649 
	C164.782501,309.777649 164.924072,309.930939 165.091858,309.783630 
	C165.324951,309.305695 165.390274,308.975006 165.455597,308.644348 
	C165.455597,308.644348 165.544281,308.570190 165.802460,308.557861 
	C166.060654,308.545563 166.342239,308.192749 166.342239,308.192749 
	C166.342239,308.192749 166.111313,307.804382 166.111313,307.804382 
	C166.111313,307.804382 166.195770,307.407318 166.669891,307.382324 
	C167.395050,306.828400 167.646088,306.299469 167.897095,305.770538 
	C173.200516,301.307648 177.987442,295.961517 183.884186,292.513245 
	C286.626129,232.431671 389.510529,172.593781 492.345154,112.670578 
	C506.550995,104.392632 520.475098,104.334549 534.802307,112.694275 
	C637.320496,172.512115 739.926331,232.179749 842.467346,291.958496 
	C855.099121,299.322449 865.059998,308.987091 867.781250,324.218353 
	C867.955933,325.196503 867.938965,326.208923 867.673218,327.933167 
	C867.224304,330.310364 867.016479,331.959778 867.016235,333.609192 
	C867.000732,448.987305 866.997864,564.365417 867.038574,679.743530 
	C867.039185,681.489624 867.596436,683.235535 867.893860,684.981506 
	C867.951355,697.880432 861.854004,707.837524 851.865112,715.049438 
	C842.728699,721.645874 832.823608,727.211731 823.075562,732.921570 
	C728.935547,788.064148 634.731018,843.096741 540.627502,898.301514 
	C530.370300,904.318787 520.125366,909.754761 507.806488,907.081665 
	C503.183533,906.078552 498.494354,904.390442 494.414795,902.018188 
	C390.321655,841.488708 286.305634,780.826477 182.275467,720.188599 
	C172.993332,714.778137 165.498856,707.679199 161.232529,697.161011 
	C160.727524,695.054993 160.005981,693.515808 159.284454,691.976624 
M660.952759,686.510681 
	C614.882690,688.503540 569.611145,695.889404 524.940552,707.048340 
	C470.248871,720.710571 417.468292,739.552185 367.478699,765.870911 
	C362.209686,768.644958 356.540833,770.702637 350.945679,772.793579 
	C348.621094,773.662354 346.002960,773.745544 343.518311,774.185974 
	C343.143097,773.581177 342.767883,772.976379 342.392670,772.371643 
	C349.225861,765.948303 355.583130,758.907471 362.975861,753.210205 
	C392.492126,730.463135 425.684448,714.468628 460.472351,701.611328 
	C503.324768,685.773438 547.492310,675.880188 593.116333,672.777222 
	C600.591980,672.268738 608.094421,672.164612 615.580688,671.797119 
	C622.831909,671.441223 628.094116,667.592712 629.036072,662.083496 
	C630.071106,656.030396 626.689636,650.932861 619.363037,648.258667 
	C615.479614,646.841187 611.422485,645.683533 607.344238,645.050781 
	C579.857239,640.786621 552.524048,643.043335 525.307556,647.566223 
	C514.341492,649.388672 503.474030,651.804077 492.343140,653.992615 
	C492.200256,652.940979 492.016113,651.992920 491.949524,651.036621 
	C490.149475,625.177246 491.006470,599.280090 494.454620,573.713989 
	C500.413055,529.535767 507.802582,485.549042 514.719604,441.502045 
	C521.573547,397.856567 533.732239,355.126129 537.614502,310.614380 
	C538.016907,310.493988 538.786377,310.199371 539.582764,310.034882 
	C562.054688,305.394745 584.467834,300.438385 607.020447,296.229523 
	C630.439331,291.858978 654.029114,288.267761 677.960938,289.107941 
	C685.367737,289.367981 692.938354,290.431732 700.040833,292.486420 
	C708.701416,294.991821 709.898071,300.953796 703.437378,307.410522 
	C699.466431,311.379028 695.088257,315.280457 690.197571,317.926880 
	C672.965271,327.251556 655.503296,336.162384 637.980164,344.934052 
	C630.561279,348.647766 622.761536,351.597321 615.160095,354.951263 
	C611.366089,356.625214 610.645447,359.739655 612.030090,363.246124 
	C613.309570,366.486206 615.782288,367.647980 619.292847,366.319550 
	C648.228271,355.370300 676.947815,343.922089 703.395386,327.614807 
	C713.777893,321.213074 723.543274,313.918060 730.231384,303.361877 
	C738.994751,289.530090 735.734863,278.147858 721.029663,271.066895 
	C719.239075,270.204620 717.396851,269.214935 715.476807,268.895081 
	C705.014465,267.152344 694.549133,264.444244 684.031982,264.181030 
	C634.761536,262.948059 585.892822,267.490448 537.353943,275.907593 
	C475.846100,286.573730 415.981995,302.724884 359.253479,329.274689 
	C338.744904,338.872986 318.596283,349.232422 300.782745,363.402374 
	C296.331238,366.943359 292.389343,371.555756 289.414581,376.411682 
	C285.833435,382.257477 287.923523,390.562164 292.878693,395.173218 
	C297.746002,399.702545 303.550293,400.292664 309.851898,396.550354 
	C358.146759,367.869476 409.606079,346.545197 463.323456,330.477325 
	C474.041931,327.271179 484.839111,324.328186 496.345459,321.051575 
	C495.062134,325.679230 493.793274,329.270508 493.082520,332.969055 
	C485.362061,373.144196 476.651154,413.169769 470.413208,453.576172 
	C465.417877,485.933624 462.242981,518.693604 460.470520,551.394775 
	C458.490997,587.915955 458.269104,624.620728 467.699097,660.645081 
	C466.308075,661.167053 465.245148,661.626221 464.145996,661.969421 
	C439.942688,669.528442 416.860779,679.720764 394.705353,691.977112 
	C370.718414,705.246582 347.909485,720.263367 329.311066,740.685303 
	C324.252899,746.239380 319.816925,752.849792 316.875946,759.735901 
	C311.460876,772.414795 319.007477,784.180847 332.666046,785.921021 
	C339.639191,786.809326 346.222992,785.281738 352.565948,782.425415 
	C365.596344,776.557739 378.458435,770.268188 391.707825,764.943665 
	C442.470734,744.543640 494.885132,729.624084 548.734924,720.196228 
	C579.530579,714.804749 610.589111,710.817627 641.617737,706.897827 
	C656.297485,705.043274 671.185913,704.848145 685.977417,703.866394 
	C691.979004,703.467957 695.123169,700.534058 695.120300,695.473694 
	C695.117310,690.130981 692.291443,687.112061 686.362122,686.871582 
	C678.212646,686.540955 670.048157,686.578796 660.952759,686.510681 
z"/>
<path fill="#02102C" opacity="1.000000" stroke="none" 
	d="
M867.988220,684.522339 
	C867.596436,683.235535 867.039185,681.489624 867.038574,679.743530 
	C866.997864,564.365417 867.000732,448.987305 867.016235,333.609192 
	C867.016479,331.959778 867.224304,330.310364 867.601196,328.346252 
	C867.948792,330.022949 868.101562,332.014404 868.101562,334.005829 
	C868.103271,450.691620 868.092285,567.377380 867.988220,684.522339 
z"/>
<path fill="#182E49" opacity="1.000000" stroke="none" 
	d="
M158.184265,484.439667 
	C158.844696,485.188995 159.898422,486.398315 159.901306,487.610107 
	C159.988037,523.941956 159.978882,560.274170 159.930237,596.606201 
	C159.928818,597.660400 159.336243,598.713745 158.650696,599.895081 
	C158.210342,583.912781 158.099060,567.802917 158.076431,551.692993 
	C158.045197,529.428955 158.080765,507.164856 158.184265,484.439667 
z"/>
<path fill="#182E49" opacity="1.000000" stroke="none" 
	d="
M158.189117,419.439331 
	C158.848190,420.195343 159.892227,421.409515 159.899323,422.629730 
	C160.003815,440.617279 159.986496,458.605682 159.929276,476.593658 
	C159.925903,477.652435 159.337189,478.709412 158.652344,479.894531 
	C158.219818,459.981323 158.155823,439.940826 158.189117,419.439331 
z"/>
<path fill="#182E49" opacity="1.000000" stroke="none" 
	d="
M158.191437,631.438110 
	C158.848694,631.861084 159.888245,632.741577 159.894943,633.629761 
	C159.989258,646.116882 159.954651,658.605042 159.892197,671.092712 
	C159.889404,671.652222 159.323700,672.208984 158.651520,672.894043 
	C158.219696,659.313721 158.156586,645.606445 158.191437,631.438110 
z"/>
<path fill="#182E49" opacity="1.000000" stroke="none" 
	d="
M162.102402,313.983032 
	C162.457382,314.165985 162.892960,314.742493 162.753418,315.084045 
	C158.103546,326.465851 160.603897,338.406067 159.933838,350.094757 
	C159.881927,351.000305 159.333603,351.877441 158.646942,352.894592 
	C158.303757,339.991943 156.308456,326.772827 162.102402,313.983032 
z"/>
<path fill="#182E49" opacity="1.000000" stroke="none" 
	d="
M158.193604,675.434143 
	C158.848862,677.330139 159.680771,679.657166 159.893387,682.039490 
	C160.109131,684.457275 159.713547,686.929565 159.314270,689.688721 
	C158.728104,685.296143 158.413330,680.592773 158.193604,675.434143 
z"/>
<path fill="#182E49" opacity="1.000000" stroke="none" 
	d="
M158.191406,370.435394 
	C161.436920,374.422546 160.199219,379.097778 158.647430,383.895935 
	C158.218231,379.645294 158.156174,375.268982 158.191406,370.435394 
z"/>
<path fill="#182E49" opacity="1.000000" stroke="none" 
	d="
M158.185013,388.434723 
	C161.423050,392.075195 160.096588,396.429932 158.653900,400.896179 
	C158.221756,396.978394 158.155426,392.934631 158.185013,388.434723 
z"/>
<path fill="#182E49" opacity="1.000000" stroke="none" 
	d="
M158.191406,410.410278 
	C158.517624,412.254272 158.747131,414.530579 158.631485,416.914429 
	C158.222458,414.962219 158.158585,412.902374 158.191406,410.410278 
z"/>
<path fill="#182E49" opacity="1.000000" stroke="none" 
	d="
M158.188965,619.409546 
	C158.516266,621.253845 158.746918,623.530457 158.632324,625.915039 
	C158.222153,623.962646 158.157227,621.902344 158.188965,619.409546 
z"/>
<path fill="#182E49" opacity="1.000000" stroke="none" 
	d="
M159.259735,692.316833 
	C160.005981,693.515808 160.727524,695.054993 161.216904,696.801147 
	C160.401520,695.557800 159.818283,694.107422 159.259735,692.316833 
z"/>
<path fill="#182E49" opacity="1.000000" stroke="none" 
	d="
M158.186340,613.376953 
	C158.491592,614.273254 158.701019,615.566895 158.597321,616.940857 
	C158.219620,615.938904 158.155060,614.856628 158.186340,613.376953 
z"/>
<path fill="#182E49" opacity="1.000000" stroke="none" 
	d="
M164.507568,309.926178 
	C164.242783,310.998749 163.703049,312.219849 162.824127,313.386780 
	C163.067520,312.246643 163.650085,311.160675 164.507568,309.926178 
z"/>
<path fill="#182E49" opacity="1.000000" stroke="none" 
	d="
M167.655273,305.856567 
	C167.646088,306.299469 167.395050,306.828400 166.841034,307.273132 
	C166.829865,306.773529 167.121658,306.358063 167.655273,305.856567 
z"/>
<path fill="#182E49" opacity="1.000000" stroke="none" 
	d="
M165.253143,308.778534 
	C165.390274,308.975006 165.324951,309.305695 165.003784,309.727692 
	C164.737579,309.479767 164.838486,309.177673 165.253143,308.778534 
z"/>
<path fill="#182E49" opacity="1.000000" stroke="none" 
	d="
M165.972961,307.867615 
	C166.111313,307.804382 166.342239,308.192749 166.342239,308.192749 
	C166.342239,308.192749 166.060654,308.545563 165.834854,308.509979 
	C165.587021,308.252899 165.662201,308.071716 165.972961,307.867615 
z"/>
<path fill="#F9F9FA" opacity="1.000000" stroke="none" 
	d="
M661.421448,686.484741 
	C670.048157,686.578796 678.212646,686.540955 686.362122,686.871582 
	C692.291443,687.112061 695.117310,690.130981 695.120300,695.473694 
	C695.123169,700.534058 691.979004,703.467957 685.977417,703.866394 
	C671.185913,704.848145 656.297485,705.043274 641.617737,706.897827 
	C610.589111,710.817627 579.530579,714.804749 548.734924,720.196228 
	C494.885132,729.624084 442.470734,744.543640 391.707825,764.943665 
	C378.458435,770.268188 365.596344,776.557739 352.565948,782.425415 
	C346.222992,785.281738 339.639191,786.809326 332.666046,785.921021 
	C319.007477,784.180847 311.460876,772.414795 316.875946,759.735901 
	C319.816925,752.849792 324.252899,746.239380 329.311066,740.685303 
	C347.909485,720.263367 370.718414,705.246582 394.705353,691.977112 
	C416.860779,679.720764 439.942688,669.528442 464.145996,661.969421 
	C465.245148,661.626221 466.308075,661.167053 467.699097,660.645081 
	C458.269104,624.620728 458.490997,587.915955 460.470520,551.394775 
	C462.242981,518.693604 465.417877,485.933624 470.413208,453.576172 
	C476.651154,413.169769 485.362061,373.144196 493.082520,332.969055 
	C493.793274,329.270508 495.062134,325.679230 496.345459,321.051575 
	C484.839111,324.328186 474.041931,327.271179 463.323456,330.477325 
	C409.606079,346.545197 358.146759,367.869476 309.851898,396.550354 
	C303.550293,400.292664 297.746002,399.702545 292.878693,395.173218 
	C287.923523,390.562164 285.833435,382.257477 289.414581,376.411682 
	C292.389343,371.555756 296.331238,366.943359 300.782745,363.402374 
	C318.596283,349.232422 338.744904,338.872986 359.253479,329.274689 
	C415.981995,302.724884 475.846100,286.573730 537.353943,275.907593 
	C585.892822,267.490448 634.761536,262.948059 684.031982,264.181030 
	C694.549133,264.444244 705.014465,267.152344 715.476807,268.895081 
	C717.396851,269.214935 719.239075,270.204620 721.029663,271.066895 
	C735.734863,278.147858 738.994751,289.530090 730.231384,303.361877 
	C723.543274,313.918060 713.777893,321.213074 703.395386,327.614807 
	C676.947815,343.922089 648.228271,355.370300 619.292847,366.319550 
	C615.782288,367.647980 613.309570,366.486206 612.030090,363.246124 
	C610.645447,359.739655 611.366089,356.625214 615.160095,354.951263 
	C622.761536,351.597321 630.561279,348.647766 637.980164,344.934052 
	C655.503296,336.162384 672.965271,327.251556 690.197571,317.926880 
	C695.088257,315.280457 699.466431,311.379028 703.437378,307.410522 
	C709.898071,300.953796 708.701416,294.991821 700.040833,292.486420 
	C692.938354,290.431732 685.367737,289.367981 677.960938,289.107941 
	C654.029114,288.267761 630.439331,291.858978 607.020447,296.229523 
	C584.467834,300.438385 562.054688,305.394745 539.582764,310.034882 
	C538.786377,310.199371 538.016907,310.493988 537.614502,310.614380 
	C533.732239,355.126129 521.573547,397.856567 514.719604,441.502045 
	C507.802582,485.549042 500.413055,529.535767 494.454620,573.713989 
	C491.006470,599.280090 490.149475,625.177246 491.949524,651.036621 
	C492.016113,651.992920 492.200256,652.940979 492.343140,653.992615 
	C503.474030,651.804077 514.341492,649.388672 525.307556,647.566223 
	C552.524048,643.043335 579.857239,640.786621 607.344238,645.050781 
	C611.422485,645.683533 615.479614,646.841187 619.363037,648.258667 
	C626.689636,650.932861 630.071106,656.030396 629.036072,662.083496 
	C628.094116,667.592712 622.831909,671.441223 615.580688,671.797119 
	C608.094421,672.164612 600.591980,672.268738 593.116333,672.777222 
	C547.492310,675.880188 503.324768,685.773438 460.472351,701.611328 
	C425.684448,714.468628 392.492126,730.463135 362.975861,753.210205 
	C355.583130,758.907471 349.225861,765.948303 342.392670,772.371643 
	C342.767883,772.976379 343.143097,773.581177 343.518311,774.185974 
	C346.002960,773.745544 348.621094,773.662354 350.945679,772.793579 
	C356.540833,770.702637 362.209686,768.644958 367.478699,765.870911 
	C417.468292,739.552185 470.248871,720.710571 524.940552,707.048340 
	C569.611145,695.889404 614.882690,688.503540 661.421448,686.484741 
z"/>
</svg>